General

Format                         : MPEG-4
Format profile                 : Base Media
Codec ID                       : isom
File size                      : 84.8 MiB
Duration                       : 3mn 23s
Overall bit rate mode          : Variable
Overall bit rate               : 3 497 Kbps
Encoded date                   : UTC 2012-10-22 04:04:12
Tagged date                    : UTC 2012-10-22 04:04:12

Video
ID                             : 1
Format                         : AVC
Format/Info                    : Advanced Video Codec
Format profile                 : High@L3.0
Format settings, CABAC         : Yes
Format settings, ReFrames      : 2 frames
Codec ID                       : avc1
Codec ID/Info                  : Advanced Video Coding
Duration                       : 3mn 23s
Bit rate                       : 3 304 Kbps
Maximum bit rate               : 7 443 Kbps
Width                          : 720 pixels
Height                         : 480 pixels
Display aspect ratio           : 16:9
Original display aspect ratio  : 16:9
Frame rate mode                : Constant
Frame rate                     : 24.000 fps
Standard                       : NTSC
Color space                    : YUV
Chroma subsampling             : 4:2:0
Bit depth                      : 8 bits
Scan type                      : Progressive
Bits/(Pixel*Frame)             : 0.398
Stream size                    : 80.1 MiB (94%)
Writing library                : x264 core 125 r2208 d9d2288


Audio
ID                             : 2
Format                         : AAC
Format/Info                    : Advanced Audio Codec
Format profile                 : LC
Codec ID                       : 40
Duration                       : 3mn 23s
Bit rate mode                  : Variable
Bit rate                       : 192 Kbps
Maximum bit rate               : 216 Kbps
Channel(s)                     : 2 channels
Channel positions              : Front: L R
Sampling rate                  : 44.1 KHz
Compression mode               : Lossy
Stream size                    : 4.58 MiB (5%)